<svg width="47" height="47" viewBox="0 0 47 47" fill="none" xmlns="http://www.w3.org/2000/svg">
<path d="M0 8.81738L4.32163 11.2864V36.5747L0 34.2084V8.81738Z" fill="white"/>
<path d="M22.6904 39.8699V46.6338L8.64429 38.9407V13.8311C17.3746 19.563 22.6904 29.3409 22.6904 39.8699Z" fill="white"/>
<path d="M46.9999 8.81738L42.6777 11.2864V36.5747L46.9999 34.2084V8.81738Z" fill="white"/>
<path d="M24.3103 39.8699V46.6338L38.3564 38.9407V13.8311C29.6261 19.563 24.3103 29.3409 24.3103 39.8699Z" fill="white"/>
<path d="M45.5474 6.49315L45.1228 6.23478C31.7554 -1.89436 15.0192 -2.08723 1.46888 5.7327L1.45264 5.74213L2.56004 6.38834C15.8326 14.1338 32.2371 14.1737 45.5474 6.49315Z" fill="white"/>
</svg>
